<?xml version="1.0" encoding="UTF-8"?>
<svg width="600" height="400" viewBox="0 0 600 400" fill="none" xmlns="http://www.w3.org/2000/svg">
  <!-- Browser Window Frame -->
  <rect x="50" y="20" width="500" height="360" rx="8" fill="#F3F4F6"/>
  <rect x="50" y="20" width="500" height="30" rx="8" fill="#E5E7EB"/>
  <circle cx="70" cy="35" r="4" fill="#EF4444"/>
  <circle cx="90" cy="35" r="4" fill="#F59E0B"/>
  <circle cx="110" cy="35" r="4" fill="#10B981"/>
  
  <!-- Content Area -->
  <rect x="70" y="70" width="460" height="290" rx="4" fill="white"/>
  
  <!-- Map on Left -->
  <rect x="90" y="90" width="200" height="150" rx="4" fill="#EEF2FF"/>
  <path d="M120 120 L180 140 L160 180 Z" fill="#6366F1" fillOpacity="0.6"/>
  <circle cx="170" cy="160" r="4" fill="#6366F1"/>
  
  <!-- People Icons on Right -->
  <circle cx="350" cy="120" r="20" fill="#6366F1" fillOpacity="0.2"/>
  <circle cx="400" cy="120" r="20" fill="#6366F1" fillOpacity="0.2"/>
  <circle cx="450" cy="120" r="20" fill="#6366F1" fillOpacity="0.2"/>
  
  <!-- Text Lines -->
  <rect x="90" y="260" width="120" height="8" rx="4" fill="#E5E7EB"/>
  <rect x="90" y="280" width="180" height="8" rx="4" fill="#E5E7EB"/>
  <rect x="90" y="300" width="150" height="8" rx="4" fill="#E5E7EB"/>
  
  <!-- Decorative Elements -->
  <circle cx="350" cy="280" r="30" fill="#6366F1" fillOpacity="0.1"/>
  <circle cx="450" cy="280" r="30" fill="#6366F1" fillOpacity="0.1"/>
</svg> 